<svg width="80" height="80" viewBox="0 0 80 80" fill="none" xmlns="http://www.w3.org/2000/svg">
<g clip-path="url(#clip0_130_47)">
<path d="M40 80C62.0914 80 80 62.0914 80 40C80 17.9086 62.0914 0 40 0C17.9086 0 0 17.9086 0 40C0 62.0914 17.9086 80 40 80Z" fill="#FAD5C2"/>
<mask id="mask0_130_47" style="mask-type:luminance" maskUnits="userSpaceOnUse" x="21" y="21" width="37" height="37">
<path d="M58 21H21V58H58V21Z" fill="white"/>
</mask>
<g mask="url(#mask0_130_47)">
<path d="M54.1458 24.0836H41.8124C40.7903 24.0836 39.8099 24.4896 39.0871 25.2124C38.3643 25.9352 37.9583 26.9155 37.9583 27.9377V28.4002L36.0081 25.0178C35.7617 24.5627 35.4275 24.1609 35.0247 23.836C34.6219 23.511 34.1586 23.2692 33.6617 23.1246C32.8351 22.892 31.9545 22.9421 31.1597 23.2669C30.3648 23.5918 29.7012 24.1727 29.2741 24.9176L21.5781 38.2468C21.3081 38.6879 21.1282 39.178 21.0488 39.689C20.9694 40.2 20.9921 40.7216 21.1156 41.2238C21.3274 42.0542 21.81 42.7904 22.4871 43.3158C23.1642 43.8413 23.9971 44.1261 24.8541 44.1252H29.0166C28.5511 45.7487 28.469 47.458 28.7768 49.1186C29.0846 50.7792 29.7739 52.3456 30.7903 53.6944C31.8067 55.0431 33.1224 56.1374 34.6339 56.891C36.1453 57.6446 37.8111 58.0368 39.4999 58.0368C41.1888 58.0368 42.8546 57.6446 44.366 56.891C45.8774 56.1374 47.1932 55.0431 48.2096 53.6944C49.226 52.3456 49.9153 50.7792 50.223 49.1186C50.5308 47.458 50.4488 45.7487 49.9833 44.1252H54.1458C54.6519 44.1252 55.1531 44.0255 55.6207 43.8318C56.0883 43.6381 56.5132 43.3542 56.8711 42.9964C57.229 42.6385 57.5129 42.2136 57.7066 41.746C57.9002 41.2784 57.9999 40.7772 57.9999 40.271V27.9377C57.9999 27.4316 57.9002 26.9304 57.7066 26.4628C57.5129 25.9952 57.229 25.5703 56.8711 25.2124C56.5132 24.8545 56.0883 24.5706 55.6207 24.3769C55.1531 24.1833 54.6519 24.0836 54.1458 24.0836ZM26.1954 39.5002L32.6118 28.3864L37.2522 36.4169C35.1294 36.8658 33.1896 37.9397 31.6822 39.5002H26.1954ZM39.4999 53.3752C38.2577 53.3752 37.0434 53.0068 36.0105 52.3167C34.9777 51.6266 34.1727 50.6456 33.6973 49.498C33.2219 48.3503 33.0975 47.0875 33.3399 45.8691C33.5822 44.6508 34.1804 43.5317 35.0588 42.6533C35.9372 41.7749 37.0563 41.1767 38.2746 40.9344C39.493 40.6921 40.7558 40.8164 41.9035 41.2918C43.0511 41.7672 44.0321 42.5722 44.7222 43.6051C45.4123 44.6379 45.7807 45.8522 45.7807 47.0945C45.7787 48.7596 45.1163 50.3559 43.9389 51.5334C42.7614 52.7108 41.1651 53.3732 39.4999 53.3752ZM53.3749 39.5002H47.3177C45.9964 38.1727 44.3713 37.1874 42.5833 36.6296V28.7086H53.3749V39.5002Z" fill="#101828"/>
</g>
</g>
<defs>
<clipPath id="clip0_130_47">
<rect width="80" height="80" fill="white"/>
</clipPath>
</defs>
</svg>
