<svg width="64" height="64" viewBox="0 0 64 64" fill="none" xmlns="http://www.w3.org/2000/svg">
<g clip-path="url(#clip0_130_85)">
<path d="M32 64C49.6731 64 64 49.6731 64 32C64 14.3269 49.6731 0 32 0C14.3269 0 0 14.3269 0 32C0 49.6731 14.3269 64 32 64Z" fill="#FAD5C2"/>
<mask id="mask0_130_85" style="mask-type:luminance" maskUnits="userSpaceOnUse" x="19" y="19" width="26" height="26">
<path d="M45 19H19V45H45V19Z" fill="white"/>
</mask>
<g mask="url(#mask0_130_85)">
<path d="M19.3153 28.2643C19.0819 27.8313 18.9737 27.3418 19.003 26.8508C19.0323 26.3598 19.1978 25.8866 19.481 25.4844C19.9439 24.8053 20.5638 24.2479 21.288 23.8594L29.4141 19.6301C30.2128 19.2148 31.0998 18.998 32 18.998C32.9003 18.998 33.7872 19.2148 34.5859 19.6301L42.7109 23.8627C43.4352 24.2511 44.0551 24.8086 44.5179 25.4877C44.8012 25.8899 44.9667 26.363 44.996 26.854C45.0253 27.3451 44.9171 27.8345 44.6837 28.2675C44.4324 28.7429 44.0554 29.1402 43.5939 29.4163C43.1325 29.6923 42.6041 29.8364 42.0664 29.8329H21.9337C21.3955 29.8363 20.8666 29.6918 20.4049 29.4152C19.9432 29.1385 19.5662 28.7404 19.3153 28.2643ZM43.9167 42.8329C43.9167 42.2583 43.6884 41.7072 43.2821 41.3009C42.8758 40.8945 42.3247 40.6662 41.75 40.6662V31.9996H39.5834V40.6662H36.3334V31.9996H34.1667V40.6662H29.8334V31.9996H27.6667V40.6662H24.4167V31.9996H22.25V40.6662C21.6754 40.6662 21.1243 40.8945 20.718 41.3009C20.3116 41.7072 20.0834 42.2583 20.0834 42.8329C19.7961 42.8329 19.5205 42.9471 19.3173 43.1502C19.1142 43.3534 19 43.6289 19 43.9162C19 44.2036 19.1142 44.4791 19.3173 44.6823C19.5205 44.8854 19.7961 44.9996 20.0834 44.9996H43.9167C44.204 44.9996 44.4796 44.8854 44.6827 44.6823C44.8859 44.4791 45 44.2036 45 43.9162C45 43.6289 44.8859 43.3534 44.6827 43.1502C44.4796 42.9471 44.204 42.8329 43.9167 42.8329Z" fill="#101828"/>
</g>
</g>
<defs>
<clipPath id="clip0_130_85">
<rect width="64" height="64" fill="white"/>
</clipPath>
</defs>
</svg>
