<svg width="64" height="64" viewBox="0 0 64 64" fill="none" xmlns="http://www.w3.org/2000/svg">
<g clip-path="url(#clip0_130_61)">
<path d="M32 64C49.6731 64 64 49.6731 64 32C64 14.3269 49.6731 0 32 0C14.3269 0 0 14.3269 0 32C0 49.6731 14.3269 64 32 64Z" fill="#FAD5C2"/>
<mask id="mask0_130_61" style="mask-type:luminance" maskUnits="userSpaceOnUse" x="19" y="19" width="26" height="26">
<path d="M45 19H19V45H45V19Z" fill="white"/>
</mask>
<g mask="url(#mask0_130_61)">
<path d="M44.9913 32.1736C44.9655 34.07 44.5216 35.9372 43.6913 37.6423C43.6115 37.6415 43.5319 37.6498 43.454 37.6672C41.4847 38.2462 39.4398 38.527 37.3873 38.5003C35.1779 38.5621 32.9728 38.2695 30.8559 37.6336C30.6042 37.5483 30.3777 37.4016 30.1968 37.2069C30.016 37.0121 29.8864 36.7754 29.8199 36.5181C29.7533 36.2607 29.7519 35.9909 29.8157 35.7329C29.8795 35.4749 30.0065 35.2368 30.1853 35.0401C30.5501 34.6342 30.9402 34.2518 31.3532 33.8951C31.5663 33.7235 31.8202 33.6101 32.0902 33.5659C32.3601 33.5216 32.637 33.5481 32.8937 33.6426C34.2787 34.1047 35.729 34.341 37.1891 34.3425C39.9347 34.3142 42.6249 33.5664 44.9913 32.1736ZM35.5186 32.0263C35.7641 32.0661 36.0156 32.0486 36.2532 31.9751C36.4909 31.9016 36.7083 31.774 36.8884 31.6025C37.0686 31.431 37.2066 31.2201 37.2916 30.9863C37.3767 30.7525 37.4065 30.5023 37.3787 30.2551C36.8771 26.1608 35.0248 22.3506 32.1148 19.4271C32.0041 19.3072 31.9225 19.1634 31.8764 19.0068C30.1627 19.0194 28.4686 19.3733 26.8931 20.0479C28.5375 21.2747 29.9141 22.8244 30.9386 24.6018C31.9631 26.3793 32.614 28.3472 32.8514 30.3851C32.8961 30.6986 33.0324 30.992 33.2433 31.2283C33.4541 31.4646 33.7301 31.6333 34.0366 31.7132C34.5232 31.8501 35.0182 31.9547 35.5186 32.0263ZM41.6654 31.3297C42.7664 30.9256 43.8152 30.3918 44.7898 29.7394C44.3429 27.2296 43.1691 24.9063 41.4139 23.0575C39.6587 21.2087 37.3994 19.9159 34.9163 19.3394C37.4487 22.3838 39.0493 26.0941 39.5258 30.0254C39.555 30.2647 39.638 30.4943 39.7686 30.697C39.8991 30.8997 40.0739 31.0702 40.2798 31.1957C40.4856 31.3212 40.7172 31.3984 40.9572 31.4217C41.1972 31.4449 41.4393 31.4134 41.6654 31.3297ZM37.1999 40.667C34.5316 40.7112 31.8763 40.2855 29.3555 39.4092C29.1526 39.335 28.9365 39.3038 28.7209 39.3176C28.5053 39.3313 28.2948 39.3896 28.103 39.4889C27.9111 39.5882 27.7419 39.7263 27.6062 39.8944C27.4705 40.0625 27.3712 40.257 27.3145 40.4655C27.0243 41.6087 26.8934 42.7866 26.9256 43.9657C29.5035 45.0615 32.3666 45.2942 35.0876 44.629C37.8085 43.9638 40.2414 42.4364 42.0229 40.2748C40.4337 40.576 38.8169 40.7075 37.1999 40.667ZM30.6999 30.7339C30.6312 30.0947 30.5142 29.4617 30.35 28.8402C30.2791 28.5822 30.144 28.3463 29.9575 28.1544C29.771 27.9625 29.539 27.8208 29.283 27.7426C29.0271 27.6643 28.7556 27.652 28.4936 27.7068C28.2317 27.7616 27.9878 27.8816 27.7847 28.0559C24.6616 30.7975 22.4347 34.4145 21.393 38.4375C21.3401 38.7391 21.3064 39.0437 21.2923 39.3496C22.2222 40.702 23.3982 41.8673 24.7589 42.7849C24.8746 40.7323 25.409 38.725 26.3291 36.8866C27.2493 35.0482 28.5358 33.4174 30.1095 32.0946C30.3118 31.9334 30.4714 31.7251 30.5744 31.4878C30.6773 31.2506 30.7204 30.9917 30.6999 30.7339ZM27.4142 23.4517C26.6297 22.5886 25.7305 21.8374 24.7416 21.219C22.3403 22.8231 20.545 25.1849 19.6418 27.9279C18.7387 30.6709 18.7797 33.6372 19.7583 36.3542C21.1618 32.1616 23.7489 28.465 27.2073 25.7105C27.374 25.5792 27.5123 25.4152 27.6136 25.2287C27.7149 25.0422 27.7772 24.837 27.7965 24.6256C27.8159 24.4142 27.792 24.2011 27.7262 23.9993C27.6605 23.7975 27.5543 23.6111 27.4142 23.4517Z" fill="#101828"/>
</g>
</g>
<defs>
<clipPath id="clip0_130_61">
<rect width="64" height="64" fill="white"/>
</clipPath>
</defs>
</svg>
